<svg id="Layer_1" data-name="Layer 1" xmlns="http://www.w3.org/2000/svg" viewBox="0 0 1920 1302"><defs><style>.cls-1{fill:#168aad;}</style></defs><title>Artboard 1</title><path class="cls-1" d="M26.67,1195.13,0,1179.73V611H1920V903.32L1893.33,911c-26.66,8.21-80,22.6-133.33,38.44s-106.67,30.23-160,61.47c-53.33,30.67-106.67,76.73-160,115.17-53.33,37.86-106.67,69.54-160,53.7s-106.67-76.3-160-99.77c-53.33-22.6-106.67-8.2-160,38.3-53.33,45.63-106.67,123.37-160,115.17-53.33-7.63-89.67-104-143-142.48-53.33-37.87-123.67-19.19-177,27.31-53.33,45.63-106.67,123.37-160,153.61s-106.67,15.83-160-7.63C106.67,1241.63,53.33,1210,26.67,1195.13Z"/><rect class="cls-1" width="1920" height="624"/></svg>